# xmcd CD database file
#
# Track frame offsets:
#	150
#	16895
#	32032
#	46962
#	67885
#	86735
#	105102
#	122302
#	138930
#	156712
#	175012
#
# Disc length: 2571 seconds
#
# Revision: 11
# Processed by: cddbd v1.5.2PL0 Copyright (c) Steve Scherf et al.
# Submitted via: CDex 2.11
#
DISCID=7f0a090b
DTITLE=Jo Dee Messina - Burn
DYEAR=2000
DGENRE=Country
TTITLE0=Downtime
TTITLE1=That's The Way
TTITLE2=Dare To Dream
TTITLE3=Burn
TTITLE4=If Not You
TTITLE5=Closer
TTITLE6=These Are The Days
TTITLE7=Saturday Night
TTITLE8=Angelene
TTITLE9=Nothing I Can Do
TTITLE10=Bring On The Rain (with Tim McGraw)
EXTD=YEAR: 2000
EXTT0=
EXTT1=
EXTT2=
EXTT3=
EXTT4=
EXTT5=
EXTT6=
EXTT7=
EXTT8=
EXTT9=
EXTT10=
PLAYORDER=
